<svg width="2934" height="1955" xmlns="http://www.w3.org/2000/svg" xmlns:xlink="http://www.w3.org/1999/xlink" xml:space="preserve" overflow="hidden"><defs><filter id="fx0" x="-10%" y="-10%" width="120%" height="120%" filterUnits="userSpaceOnUse" primitiveUnits="userSpaceOnUse"><feComponentTransfer color-interpolation-filters="sRGB"><feFuncR type="discrete" tableValues="0 0"/><feFuncG type="discrete" tableValues="0 0"/><feFuncB type="discrete" tableValues="0 0"/><feFuncA type="linear" slope="0.631373" intercept="0"/></feComponentTransfer><feGaussianBlur stdDeviation="6.875 6.875"/></filter><filter id="fx1" x="-10%" y="-10%" width="120%" height="120%" filterUnits="userSpaceOnUse" primitiveUnits="userSpaceOnUse"><feComponentTransfer color-interpolation-filters="sRGB"><feFuncR type="discrete" tableValues="0 0"/><feFuncG type="discrete" tableValues="0 0"/><feFuncB type="discrete" tableValues="0 0"/><feFuncA type="linear" slope="0.631373" intercept="0"/></feComponentTransfer><feGaussianBlur stdDeviation="6.875 6.875"/></filter><filter id="fx2" x="-10%" y="-10%" width="120%" height="120%" filterUnits="userSpaceOnUse" primitiveUnits="userSpaceOnUse"><feComponentTransfer color-interpolation-filters="sRGB"><feFuncR type="discrete" tableValues="0 0"/><feFuncG type="discrete" tableValues="0 0"/><feFuncB type="discrete" tableValues="0 0"/><feFuncA type="linear" slope="0.631373" intercept="0"/></feComponentTransfer><feGaussianBlur stdDeviation="6.875 6.875"/></filter><filter id="fx3" x="-10%" y="-10%" width="120%" height="120%" filterUnits="userSpaceOnUse" primitiveUnits="userSpaceOnUse"><feComponentTransfer color-interpolation-filters="sRGB"><feFuncR type="discrete" tableValues="0 0"/><feFuncG type="discrete" tableValues="0 0"/><feFuncB type="discrete" tableValues="0 0"/><feFuncA type="linear" slope="0.631373" intercept="0"/></feComponentTransfer><feGaussianBlur stdDeviation="6.875 6.875"/></filter><filter id="fx4" x="-10%" y="-10%" width="120%" height="120%" filterUnits="userSpaceOnUse" primitiveUnits="userSpaceOnUse"><feComponentTransfer color-interpolation-filters="sRGB"><feFuncR type="discrete" tableValues="0 0"/><feFuncG type="discrete" tableValues="0 0"/><feFuncB type="discrete" tableValues="0 0"/><feFuncA type="linear" slope="0.631373" intercept="0"/></feComponentTransfer><feGaussianBlur stdDeviation="6.875 6.875"/></filter><filter id="fx5" x="-10%" y="-10%" width="120%" height="120%" filterUnits="userSpaceOnUse" primitiveUnits="userSpaceOnUse"><feComponentTransfer color-interpolation-filters="sRGB"><feFuncR type="discrete" tableValues="0 0"/><feFuncG type="discrete" tableValues="0 0"/><feFuncB type="discrete" tableValues="0 0"/><feFuncA type="linear" slope="0.631373" intercept="0"/></feComponentTransfer><feGaussianBlur stdDeviation="6.875 6.875"/></filter><clipPath id="clip6"><rect x="733" y="260" width="2934" height="1955"/></clipPath><linearGradient x1="2576.04" y1="424.78" x2="2576.04" y2="1790.8" gradientUnits="userSpaceOnUse" spreadMethod="reflect" id="fill7"><stop offset="0" stop-color="#66B352"/><stop offset="0.5" stop-color="#4BAD28"/><stop offset="1" stop-color="#3F9E1D"/></linearGradient><linearGradient x1="2056.08" y1="1176.85" x2="2056.08" y2="1928.99" gradientUnits="userSpaceOnUse" spreadMethod="reflect" id="fill8"><stop offset="0" stop-color="#AC51A0"/><stop offset="0.5" stop-color="#A62598"/><stop offset="1" stop-color="#981B8A"/></linearGradient><linearGradient x1="1823.96" y1="998.989" x2="1823.96" y2="1386.68" gradientUnits="userSpaceOnUse" spreadMethod="reflect" id="fill9"><stop offset="0" stop-color="#47AADF"/><stop offset="0.5" stop-color="#05A2DF"/><stop offset="1" stop-color="#0094CE"/></linearGradient><linearGradient x1="1834.63" y1="679.499" x2="1834.63" y2="1176.85" gradientUnits="userSpaceOnUse" spreadMethod="reflect" id="fill10"><stop offset="0" stop-color="#53784B"/><stop offset="0.5" stop-color="#2D6818"/><stop offset="1" stop-color="#255F11"/></linearGradient><linearGradient x1="1917.93" y1="552.184" x2="1917.93" y2="1176.85" gradientUnits="userSpaceOnUse" spreadMethod="reflect" id="fill11"><stop offset="0" stop-color="#754A6F"/><stop offset="0.5" stop-color="#64165B"/><stop offset="1" stop-color="#5B0F52"/></linearGradient><linearGradient x1="1990.59" y1="424.781" x2="1990.59" y2="1176.85" gradientUnits="userSpaceOnUse" spreadMethod="reflect" id="fill12"><stop offset="0" stop-color="#467490"/><stop offset="0.5" stop-color="#036186"/><stop offset="1" stop-color="#00587B"/></linearGradient><linearGradient x1="1282" y1="2126" x2="1282" y2="2156" gradientUnits="userSpaceOnUse" spreadMethod="reflect" id="fill13"><stop offset="0" stop-color="#66B352"/><stop offset="0.5" stop-color="#4BAD28"/><stop offset="1" stop-color="#3F9E1D"/></linearGradient><linearGradient x1="1654.5" y1="2126" x2="1654.5" y2="2156" gradientUnits="userSpaceOnUse" spreadMethod="reflect" id="fill14"><stop offset="0" stop-color="#AC51A0"/><stop offset="0.5" stop-color="#A62598"/><stop offset="1" stop-color="#981B8A"/></linearGradient><linearGradient x1="1889" y1="2126" x2="1889" y2="2156" gradientUnits="userSpaceOnUse" spreadMethod="reflect" id="fill15"><stop offset="0" stop-color="#47AADF"/><stop offset="0.5" stop-color="#05A2DF"/><stop offset="1" stop-color="#0094CE"/></linearGradient><linearGradient x1="2295" y1="2126" x2="2295" y2="2156" gradientUnits="userSpaceOnUse" spreadMethod="reflect" id="fill16"><stop offset="0" stop-color="#53784B"/><stop offset="0.5" stop-color="#2D6818"/><stop offset="1" stop-color="#255F11"/></linearGradient><linearGradient x1="2632" y1="2126" x2="2632" y2="2156" gradientUnits="userSpaceOnUse" spreadMethod="reflect" id="fill17"><stop offset="0" stop-color="#754A6F"/><stop offset="0.5" stop-color="#64165B"/><stop offset="1" stop-color="#5B0F52"/></linearGradient><linearGradient x1="3013" y1="2126" x2="3013" y2="2156" gradientUnits="userSpaceOnUse" spreadMethod="reflect" id="fill18"><stop offset="0" stop-color="#467490"/><stop offset="0.5" stop-color="#036186"/><stop offset="1" stop-color="#00587B"/></linearGradient></defs><g clip-path="url(#clip6)" transform="translate(-733 -260)"><g><g filter="url(#fx0)" transform="translate(2178 410)"><g><path d="M22 21.6551C437.359 21.6551 774.073 358.37 774.073 773.728 774.073 1017.81 655.627 1246.7 456.377 1387.68L22 773.728Z" fill="#FF0000" fill-rule="evenodd"/></g></g></g><g><g filter="url(#fx1)" transform="translate(1456 1162)"><g><path d="M1178.38 635.675C839.303 875.575 369.952 795.179 130.053 456.105 81.7238 387.797 45.1332 311.903 21.7884 231.55L744 21.7285Z" fill="#FF0000" fill-rule="evenodd"/></g></g></g><g><g filter="url(#fx2)" transform="translate(1426 984)"><g><path d="M51.7891 409.551C15.1067 283.289 12.1666 149.617 43.262 21.8641L774 199.728Z" fill="#FF0000" fill-rule="evenodd"/></g></g></g><g><g filter="url(#fx3)" transform="translate(1447 664)"><g><path d="M22.2617 341.864C51.0863 223.441 108.26 113.798 188.861 22.374L753 519.728Z" fill="#FF0000" fill-rule="evenodd"/></g></g></g><g><g filter="url(#fx4)" transform="translate(1614 537)"><g><path d="M21.8611 149.373C64.6282 100.863 113.474 58.0723 167.188 22.059L586 646.728Z" fill="#FF0000" fill-rule="evenodd"/></g></g></g><g><g filter="url(#fx5)" transform="translate(1759 410)"><g><path d="M22.1879 149.06C146.07 66.003 291.851 21.6558 440.999 21.6558L441 773.728Z" fill="#FF0000" fill-rule="evenodd"/></g></g></g><g><path d="M2200 424.78C2615.36 424.78 2952.07 761.495 2952.07 1176.85 2952.07 1420.93 2833.63 1649.83 2634.38 1790.8L2200 1176.85Z" fill="url(#fill7)" fill-rule="evenodd"/></g><g><path d="M2634.38 1790.8C2295.3 2030.7 1825.95 1950.3 1586.05 1611.23 1537.72 1542.92 1501.13 1467.03 1477.79 1386.68L2200 1176.85Z" fill="url(#fill8)" fill-rule="evenodd"/></g><g><path d="M1477.79 1386.68C1441.11 1260.41 1438.17 1126.74 1469.26 998.989L2200 1176.85Z" fill="url(#fill9)" fill-rule="evenodd"/></g><g><path d="M1469.26 998.989C1498.09 880.566 1555.26 770.923 1635.86 679.499L2200 1176.85Z" fill="url(#fill10)" fill-rule="evenodd"/></g><g><path d="M1635.86 679.498C1678.63 630.988 1727.47 588.197 1781.19 552.184L2200 1176.85Z" fill="url(#fill11)" fill-rule="evenodd"/></g><g><path d="M1781.19 552.185C1905.07 469.128 2050.85 424.781 2200 424.781L2200 1176.85Z" fill="url(#fill12)" fill-rule="evenodd"/></g><g><path d="M2956.5 841.5 3005.67 841.5 3005.67 841.5 3079.42 841.5 3251.5 841.5 3251.5 928.417 3251.5 928.417 3251.5 965.667 3251.5 990.5 3079.42 990.5 3005.67 990.5 3005.67 990.5 2956.5 990.5 2956.5 965.667 2917.19 948.799 2956.5 928.417Z" stroke="#BFBFBF" stroke-width="3.4375" stroke-linejoin="round" stroke-miterlimit="10" fill="#FFFFFF" fill-rule="evenodd"/></g><g><g><text fill="#595959" font-family="Aptos,Aptos_MSFontService,sans-serif" font-weight="400" font-size="55" transform="matrix(1 0 0 1 2971.25 901)">Βιομηχανία</text></g></g><g><g><text fill="#595959" font-family="Aptos,Aptos_MSFontService,sans-serif" font-weight="400" font-size="55" transform="matrix(1 0 0 1 3051.8 967)">40%</text></g></g><g><path d="M1781.5 1915.5 1872.5 1915.5 1951.67 1887.12 1911.5 1915.5 1937.5 1915.5 1937.5 1940.33 1937.5 1940.33 1937.5 1977.58 1937.5 2064.5 1911.5 2064.5 1872.5 2064.5 1872.5 2064.5 1781.5 2064.5 1781.5 1977.58 1781.5 1940.33 1781.5 1940.33Z" stroke="#BFBFBF" stroke-width="3.4375" stroke-linejoin="round" stroke-miterlimit="10" fill="#FFFFFF" fill-rule="evenodd"/></g><g><g><text fill="#595959" font-family="Aptos,Aptos_MSFontService,sans-serif" font-weight="400" font-size="55" transform="matrix(1 0 0 1 1796.44 1975)">Υγεία</text></g></g><g><g><text fill="#595959" font-family="Aptos,Aptos_MSFontService,sans-serif" font-weight="400" font-size="55" transform="matrix(1 0 0 1 1807.88 2041)">30%</text></g></g><g><path d="M1078.5 1121.5 1269.83 1121.5 1269.83 1121.5 1351.83 1121.5 1406.5 1121.5 1406.5 1146.33 1447.91 1193.7 1406.5 1183.58 1406.5 1270.5 1351.83 1270.5 1269.83 1270.5 1269.83 1270.5 1078.5 1270.5 1078.5 1183.58 1078.5 1146.33 1078.5 1146.33Z" stroke="#BFBFBF" stroke-width="3.4375" stroke-linejoin="round" stroke-miterlimit="10" fill="#FFFFFF" fill-rule="evenodd"/></g><g><g><text fill="#595959" font-family="Aptos,Aptos_MSFontService,sans-serif" font-weight="400" font-size="55" transform="matrix(1 0 0 1 1093.42 1181)">Λιανεμπόριο</text></g></g><g><g><text fill="#595959" font-family="Aptos,Aptos_MSFontService,sans-serif" font-weight="400" font-size="55" transform="matrix(1 0 0 1 1205.05 1247)">8%</text></g></g><g><path d="M1237.5 701.5 1388.58 701.5 1388.58 701.5 1453.33 701.5 1496.5 701.5 1496.5 788.417 1532.95 828.747 1496.5 825.667 1496.5 850.5 1453.33 850.5 1388.58 850.5 1388.58 850.5 1237.5 850.5 1237.5 825.667 1237.5 788.417 1237.5 788.417Z" stroke="#BFBFBF" stroke-width="3.4375" stroke-linejoin="round" stroke-miterlimit="10" fill="#FFFFFF" fill-rule="evenodd"/></g><g><g><text fill="#595959" font-family="Aptos,Aptos_MSFontService,sans-serif" font-weight="400" font-size="55" transform="matrix(1 0 0 1 1252.58 761)">Ασφάλεια</text></g></g><g><g><text fill="#595959" font-family="Aptos,Aptos_MSFontService,sans-serif" font-weight="400" font-size="55" transform="matrix(1 0 0 1 1329.81 827)">8%</text></g></g><g><path d="M1372.5 439.5 1549.83 439.5 1549.83 439.5 1625.83 439.5 1676.5 439.5 1676.5 526.417 1676.5 526.417 1676.5 563.667 1676.5 588.5 1625.83 588.5 1704.74 611.111 1549.83 588.5 1372.5 588.5 1372.5 563.667 1372.5 526.417 1372.5 526.417Z" stroke="#BFBFBF" stroke-width="3.4375" stroke-linejoin="round" stroke-miterlimit="10" fill="#FFFFFF" fill-rule="evenodd"/></g><g><g><text fill="#595959" font-family="Aptos,Aptos_MSFontService,sans-serif" font-weight="400" font-size="55" transform="matrix(1 0 0 1 1387.71 499)">Μεταφορές</text></g></g><g><g><text fill="#595959" font-family="Aptos,Aptos_MSFontService,sans-serif" font-weight="400" font-size="55" transform="matrix(1 0 0 1 1487.03 565)">4%</text></g></g><g><path d="M1833.5 279.5 1915.75 279.5 1915.75 279.5 1951 279.5 1974.5 279.5 1974.5 366.417 1974.5 366.417 1974.5 403.667 1974.5 428.5 1951 428.5 1980.74 457.259 1915.75 428.5 1833.5 428.5 1833.5 403.667 1833.5 366.417 1833.5 366.417Z" stroke="#BFBFBF" stroke-width="3.4375" stroke-linejoin="round" stroke-miterlimit="10" fill="#FFFFFF" fill-rule="evenodd"/></g><g><g><text fill="#595959" font-family="Aptos,Aptos_MSFontService,sans-serif" font-weight="400" font-size="55" transform="matrix(1 0 0 1 1848.25 339)">Άλλο</text></g></g><g><g><text fill="#595959" font-family="Aptos,Aptos_MSFontService,sans-serif" font-weight="400" font-size="55" transform="matrix(1 0 0 1 1852.37 405)">10%</text></g></g><g><rect x="1267" y="2126" width="29.9999" height="30" fill="url(#fill13)"/></g><g><text fill="#595959" font-family="Aptos,Aptos_MSFontService,sans-serif" font-weight="400" font-size="55" transform="matrix(1 0 0 1 1310.04 2156)">Βιομηχανία</text></g><g><rect x="1639" y="2126" width="30.9999" height="30" fill="url(#fill14)"/></g><g><text fill="#595959" font-family="Aptos,Aptos_MSFontService,sans-serif" font-weight="400" font-size="55" transform="matrix(1 0 0 1 1682.94 2156)">Υγεία</text></g><g><rect x="1874" y="2126" width="29.9999" height="30" fill="url(#fill15)"/></g><g><text fill="#595959" font-family="Aptos,Aptos_MSFontService,sans-serif" font-weight="400" font-size="55" transform="matrix(1 0 0 1 1917.62 2156)">Λιανεμπόριο</text></g><g><rect x="2280" y="2126" width="30" height="30" fill="url(#fill16)"/></g><g><text fill="#595959" font-family="Aptos,Aptos_MSFontService,sans-serif" font-weight="400" font-size="55" transform="matrix(1 0 0 1 2323.35 2156)">Ασφάλεια</text></g><g><rect x="2617" y="2126" width="30" height="30" fill="url(#fill17)"/></g><g><text fill="#595959" font-family="Aptos,Aptos_MSFontService,sans-serif" font-weight="400" font-size="55" transform="matrix(1 0 0 1 2660.31 2156)">Μεταφορές</text></g><g><rect x="2998" y="2126" width="30.0002" height="30" fill="url(#fill18)"/></g><g><text fill="#595959" font-family="Aptos,Aptos_MSFontService,sans-serif" font-weight="400" font-size="55" transform="matrix(1 0 0 1 3041.46 2156)">Άλλο</text></g></g></svg>