<svg width="1657" height="978" xmlns="http://www.w3.org/2000/svg" xmlns:xlink="http://www.w3.org/1999/xlink" xml:space="preserve" overflow="hidden"><g transform="translate(-351 -419)"><path d="M0 0 238.333 390.116" stroke="#D86ECC" stroke-width="27.5" stroke-miterlimit="8" fill="none" fill-rule="evenodd" transform="matrix(1 0 0 -1 1545 1237.12)"/><path d="M1393.34 1097.76 1154 598" stroke="#46B1E1" stroke-width="27.5" stroke-miterlimit="8" stroke-dasharray="27.5 27.5" fill="none" fill-rule="evenodd"/><path d="M915 1139 1228.82 1276.5" stroke="#46B1E1" stroke-width="27.5" stroke-miterlimit="8" fill="none" fill-rule="evenodd"/><g><g><g><path d="M350 362.5 50 362.5 50 162.5 350 162.5 350 362.5ZM362.5 125 37.5 125C23.75 125 12.5 136.25 12.5 150L12.5 375C12.5 388.75 23.75 400 37.5 400L162.5 400 162.5 437.5 106.25 437.5 106.25 475 293.75 475 293.75 437.5 237.5 437.5 237.5 400 362.5 400C376.25 400 387.5 388.75 387.5 375L387.5 150C387.5 136.25 376.25 125 362.5 125Z" transform="matrix(1.00167 0 0 1 351 797)"/><path d="M562.5 187.5 437.5 187.5 437.5 150 562.5 150 562.5 187.5ZM562.5 250 437.5 250 437.5 212.5 562.5 212.5 562.5 250ZM500 437.5C489.375 437.5 481.25 429.375 481.25 418.75 481.25 408.125 489.375 400 500 400 510.625 400 518.75 408.125 518.75 418.75 518.75 429.375 510.625 437.5 500 437.5ZM562.5 125 437.5 125C423.75 125 412.5 136.25 412.5 150L412.5 450C412.5 463.75 423.75 475 437.5 475L562.5 475C576.25 475 587.5 463.75 587.5 450L587.5 150C587.5 136.25 576.25 125 562.5 125Z" transform="matrix(1.00167 0 0 1 351 797)"/></g></g></g><g><g><g><path d="M1885.97 773.812 1913.47 739.437 1883.71 721.291C1892.9 711.215 1898 698.073 1898 684.437L1898 674.125 1909.52 674.125C1914.55 674.223 1918.71 670.225 1918.81 665.195 1918.82 664.523 1918.76 663.852 1918.62 663.194 1917.66 658.805 1913.7 655.735 1909.21 655.906L1894.56 655.906 1879.4 610.497C1878.33 602.424 1870.91 596.753 1862.84 597.83 1859.5 598.275 1856.42 599.845 1854.1 602.281 1848.05 608.71 1837.94 609.018 1831.51 602.969 1831.37 602.84 1831.24 602.71 1831.11 602.577L1830.07 601.546C1824.22 595.885 1814.88 596.043 1809.22 601.899 1806.99 604.205 1805.58 607.175 1805.19 610.359L1788 655.906 1773.36 655.906C1768.93 655.82 1765.06 658.87 1764.11 663.194 1763.1 668.123 1766.28 672.935 1771.21 673.942 1771.21 673.943 1771.21 673.943 1771.21 673.943 1771.82 674.063 1772.43 674.125 1773.05 674.125L1788 674.125 1788 684.437C1788 698.078 1793.1 711.226 1802.3 721.301L1772.53 739.437 1800.03 773.812 1789.72 780.687 1826.71 873.5 1859.29 873.5 1896.28 780.687ZM1801.75 674.125 1884.25 674.125 1884.25 684.437C1884.25 707.219 1865.78 725.687 1843 725.687 1820.22 725.687 1801.75 707.219 1801.75 684.437ZM1854 833.109 1850.97 772.953 1835.02 772.953 1832 833.109 1817.06 732.906C1833.2 741.579 1852.61 741.611 1868.77 732.992Z"/><path d="M1781.28 778.058 1785.92 774.964 1789.99 772.248 1773.83 752.036C1763.84 756.181 1754.47 761.691 1745.99 768.409 1737.95 774.675 1733.17 784.244 1733 794.437L1733 854.834 1736.06 856.876C1749.84 866.058 1782.84 871.475 1819.18 873.156L1783.35 783.231Z"/><path d="M1953 794.307C1952.82 784.215 1948.11 774.74 1940.17 768.505 1931.65 761.754 1922.25 756.217 1912.21 752.05L1896.05 772.252 1900.13 774.967 1904.76 778.061 1902.7 783.235 1866.81 873.225C1904.07 871.637 1937.63 866.116 1950.23 856.656L1952.98 854.594Z"/><path d="M1829.26 745.453 1834.59 766.078 1851.44 766.078 1856.76 745.453 1829.26 745.453Z"/></g></g></g><g><g><g><path d="M196.677 211.117 210.619 197.175C203.648 189.706 199.167 179.748 199.167 168.794 199.167 157.84 203.648 147.881 210.619 140.413L196.677 126.471C185.723 137.425 179.25 152.363 179.25 168.794 179.25 185.225 185.723 200.163 196.677 211.117Z" transform="matrix(1 0 0 1.00209 1154 918)"/><path d="M168.794 239 182.735 225.058C168.296 210.619 159.333 190.702 159.333 168.794 159.333 146.885 168.296 126.969 182.735 112.529L168.794 98.5875C150.371 116.513 139.417 141.408 139.417 168.794 139.417 196.179 150.371 221.075 168.794 239Z" transform="matrix(1 0 0 1.00209 1154 918)"/><path d="M154.354 253.44C132.944 232.029 119.5 202.154 119.5 168.794 119.5 135.433 132.944 106.056 154.354 84.1479L140.413 70.2063C115.019 95.6 99.5834 130.454 99.5834 168.794 99.5834 207.133 115.019 241.988 140.413 267.381L154.354 253.44Z" transform="matrix(1 0 0 1.00209 1154 918)"/><path d="M281.323 211.117C292.277 200.163 298.75 185.225 298.75 168.794 298.75 152.363 292.277 137.425 281.323 126.471L267.381 140.413C274.352 147.383 278.833 157.342 278.833 168.794 278.833 180.246 274.352 189.706 267.381 197.175L281.323 211.117Z" transform="matrix(1 0 0 1.00209 1154 918)"/><path d="M295.265 225.058 309.206 239C327.629 221.075 338.583 196.179 338.583 168.794 338.583 141.408 327.629 116.513 309.206 98.5875L295.265 112.529C309.704 126.969 318.667 146.885 318.667 168.794 318.667 190.702 309.704 210.619 295.265 225.058Z" transform="matrix(1 0 0 1.00209 1154 918)"/><path d="M323.646 253.44 337.588 267.381C362.981 241.988 378.417 207.133 378.417 168.794 378.417 130.454 362.981 95.6 337.588 70.2063L323.646 84.1479C345.056 105.558 358.5 135.433 358.5 168.794 358.5 202.154 345.056 231.531 323.646 253.44Z" transform="matrix(1 0 0 1.00209 1154 918)"/><path d="M368.458 367.961C362.981 367.961 358.5 363.479 358.5 358.002 358.5 352.525 362.981 348.044 368.458 348.044 373.936 348.044 378.417 352.525 378.417 358.002 378.417 363.479 373.936 367.961 368.458 367.961ZM318.667 367.961C313.19 367.961 308.708 363.479 308.708 358.002 308.708 352.525 313.19 348.044 318.667 348.044 324.144 348.044 328.625 352.525 328.625 358.002 328.625 363.479 324.144 367.961 318.667 367.961ZM268.875 367.961C263.398 367.961 258.917 363.479 258.917 358.002 258.917 352.525 263.398 348.044 268.875 348.044 274.352 348.044 278.833 352.525 278.833 358.002 278.833 363.479 274.352 367.961 268.875 367.961ZM219.083 367.961C213.606 367.961 209.125 363.479 209.125 358.002 209.125 352.525 213.606 348.044 219.083 348.044 224.56 348.044 229.042 352.525 229.042 358.002 229.042 363.479 224.56 367.961 219.083 367.961ZM119.5 377.919C108.546 377.919 99.5834 368.956 99.5834 358.002 99.5834 347.048 108.546 338.086 119.5 338.086 130.454 338.086 139.417 347.048 139.417 358.002 139.417 368.956 130.454 377.919 119.5 377.919ZM388.375 308.211 248.958 308.211 248.958 185.723C254.933 182.238 258.917 175.765 258.917 168.794 258.917 157.84 249.954 148.877 239 148.877 228.046 148.877 219.083 157.84 219.083 168.794 219.083 176.263 223.067 182.735 229.042 185.723L229.042 308.211 89.625 308.211C78.6709 308.211 69.7084 317.173 69.7084 328.127L69.7084 387.877C69.7084 398.831 78.6709 407.794 89.625 407.794L388.375 407.794C399.329 407.794 408.292 398.831 408.292 387.877L408.292 328.127C408.292 317.173 399.329 308.211 388.375 308.211Z" transform="matrix(1 0 0 1.00209 1154 918)"/></g></g></g><g><g><g><path d="M101.667 133.437C101.667 105.479 124.542 82.6041 152.5 82.6041 180.458 82.6041 203.333 105.479 203.333 133.437 203.333 161.396 180.458 184.271 152.5 184.271 124.542 184.271 101.667 161.396 101.667 133.437ZM152.5 57.1875C155.995 57.1875 158.854 60.0469 158.854 63.5416 158.854 67.0364 155.995 69.8958 152.5 69.8958 149.005 69.8958 146.146 67.0364 146.146 63.5416 146.146 60.0469 149.005 57.1875 152.5 57.1875ZM217.63 240.187 177.917 235.104 177.917 218.583C214.771 207.781 241.458 173.786 241.458 133.437 241.458 84.1927 201.745 44.4792 152.5 44.4792 103.255 44.4792 63.5416 84.1927 63.5416 133.437 63.5416 173.786 90.2291 207.781 127.083 218.583L127.083 235.104 87.3698 240.187C81.0156 241.141 76.25 246.542 76.25 252.896L76.25 260.521 228.75 260.521 228.75 252.578C228.75 246.224 223.984 240.823 217.63 240.187Z" transform="matrix(1 0 0 1 952 419)"/><path d="M152.5 152.5C142.016 152.5 133.437 143.922 133.437 133.437 133.437 122.953 142.016 114.375 152.5 114.375 162.984 114.375 171.562 122.953 171.562 133.437 171.562 143.922 162.984 152.5 152.5 152.5ZM152.5 95.3125C131.531 95.3125 114.375 112.469 114.375 133.437 114.375 154.406 131.531 171.562 152.5 171.562 173.469 171.562 190.625 154.406 190.625 133.437 190.625 112.469 173.469 95.3125 152.5 95.3125Z" transform="matrix(1 0 0 1 952 419)"/></g></g></g><path d="M1717.18 779.725 1243.11 581.876 1251.06 562.842 1725.13 760.691ZM1244.69 604.882 1199.5 552.5 1268.52 547.78Z" fill="#FF0000"/><text fill="#FF0000" font-family="Aptos,Aptos_MSFontService,sans-serif" font-weight="700" font-size="83" transform="matrix(0.922512 0.385968 -0.385968 0.922512 1400.87 618)">Attack</text><text font-family="Aptos,Aptos_MSFontService,sans-serif" font-weight="700" font-size="55" transform="matrix(1 0 0 1 996.674 657)">IP </text><text font-family="Aptos,Aptos_MSFontService,sans-serif" font-weight="700" font-size="55" transform="matrix(1 0 0 1 996.674 723)">Camera</text><path d="M6.42351-8.0676 22.5587 4.77941 9.7117 20.9146-6.42351 8.0676ZM38.6939 17.6264 54.8291 30.4734 41.9821 46.6086 25.8469 33.7616ZM70.9643 43.3204 87.0995 56.1675 74.2525 72.3027 58.1173 59.4557ZM103.235 69.0145 119.37 81.8615 106.523 97.9967 90.3877 85.1497ZM135.505 94.7085 151.64 107.556 138.793 123.691 122.658 110.844ZM167.776 120.403 183.911 133.25 171.064 149.385 154.929 136.538ZM200.046 146.097 216.181 158.944 203.334 175.079 187.199 162.232ZM232.316 171.791 248.452 184.638 235.605 200.773 219.469 187.926ZM264.587 197.485 278.073 208.222 265.226 224.357 251.74 213.62ZM282.852 185.663 311.987 248.407 244.311 234.069Z" fill="#47D45A" transform="matrix(-1 0 0 1 964.487 673.5)"/><text fill="#13501B" font-family="Aptos,Aptos_MSFontService,sans-serif" font-weight="700" font-size="37" transform="matrix(0.784512 -0.620113 0.620113 0.784512 708.896 851)">Temperature</text><text fill="#13501B" font-family="Aptos,Aptos_MSFontService,sans-serif" font-weight="700" font-size="37" transform="matrix(0.784512 -0.620113 0.620113 0.784512 884.635 712)">Dat</text><text fill="#13501B" font-family="Aptos,Aptos_MSFontService,sans-serif" font-weight="700" font-size="37" transform="matrix(0.784512 -0.620113 0.620113 0.784512 930.929 676)">a</text><g><g><g><path d="M41.0417 28.7292 28.7292 28.7292 28.7292 168.271 168.271 168.271 168.271 155.958 41.0417 155.958Z" transform="matrix(1.41624 0 0 1 415 960)"/><path d="M53.3542 71.8229 75.9271 71.8229 75.9271 143.646 53.3542 143.646Z" transform="matrix(1.41624 0 0 1 415 960)"/><path d="M84.1354 28.7292 106.708 28.7292 106.708 143.646 84.1354 143.646Z" transform="matrix(1.41624 0 0 1 415 960)"/><path d="M114.917 71.8229 137.49 71.8229 137.49 143.646 114.917 143.646Z" transform="matrix(1.41624 0 0 1 415 960)"/><path d="M145.698 106.708 168.271 106.708 168.271 143.646 145.698 143.646Z" transform="matrix(1.41624 0 0 1 415 960)"/></g></g></g><text fill="#D86ECC" font-family="Aptos,Aptos_MSFontService,sans-serif" font-weight="700" font-size="48" transform="matrix(0.522586 -0.852587 0.852587 0.522586 1591 1285)">Unauthorized Access</text></g></svg>